<svg width="46" height="29" viewBox="0 0 46 29" fill="none" xmlns="http://www.w3.org/2000/svg">
<g filter="url(#filter0_d_339_167)">
<path d="M41.4131 22.4033L33.708 24.5566L30.6465 14.7422H30.5C30.3047 15.0645 29.5869 16.1729 28.3467 18.0674C27.1064 19.9619 26.2861 21.3047 25.8857 22.0957H19.6748C18.6592 20.4258 17.7559 19.0244 16.9648 17.8916C16.1836 16.7588 15.5684 15.8457 15.1191 15.1523H14.9141C14.7285 15.709 14.2354 17.2568 13.4346 19.7959C12.6436 22.3252 12.126 23.9121 11.8818 24.5566L4.25 22.4033C4.86523 20.2842 5.82715 16.9395 7.13574 12.3691C8.4541 7.79883 9.16211 5.26465 9.25977 4.7666L17.3311 4.13672C17.4971 4.49805 18.0977 5.60156 19.1328 7.44727C20.168 9.2832 21.4033 11.3486 22.8389 13.6436H22.9707C23.918 12.0713 25.0654 10.1621 26.4131 7.91602C27.7705 5.66992 28.5371 4.40039 28.7129 4.10742L37.0918 4.78125C37.1504 5.06445 37.7266 7.49609 38.8203 12.0762C39.9238 16.6465 40.7881 20.0889 41.4131 22.4033Z" fill="#F5F5F5"/>
</g>
<defs>
<filter id="filter0_d_339_167" x="0.25" y="0.107422" width="45.1631" height="28.4492" filterUnits="userSpaceOnUse" color-interpolation-filters="sRGB">
<feFlood flood-opacity="0" result="BackgroundImageFix"/>
<feColorMatrix in="SourceAlpha" type="matrix" values="0 0 0 0 0 0 0 0 0 0 0 0 0 0 0 0 0 0 127 0" result="hardAlpha"/>
<feOffset/>
<feGaussianBlur stdDeviation="2"/>
<feComposite in2="hardAlpha" operator="out"/>
<feColorMatrix type="matrix" values="0 0 0 0 0.368627 0 0 0 0 0.376471 0 0 0 0 0.392157 0 0 0 1 0"/>
<feBlend mode="normal" in2="BackgroundImageFix" result="effect1_dropShadow_339_167"/>
<feBlend mode="normal" in="SourceGraphic" in2="effect1_dropShadow_339_167" result="shape"/>
</filter>
</defs>
</svg>
